<svg xmlns="http://www.w3.org/2000/svg" viewBox="0 0 309.66 171.82"><title>제목</title><g id="레이어_2" data-name="레이어 2"><g id="레이어_1-2" data-name="레이어 1"><path d="M38.34,25.69c5.64,5.83,6,14.31,10,21.1A21.87,21.87,0,0,0,64.49,57.28c2.48.3,6.17.49,8.38-1s2.42-4.43,2.51-7C75.7,40.08,71.8,31.37,68,23.17c-.81-1.75-3.4-.23-2.59,1.51,3.19,6.9,6.53,14.2,6.94,21.91.13,2.38.39,6.33-2.37,7.6-1.33.61-3.71.25-5.1.09A19.11,19.11,0,0,1,56.15,51C46.9,44.51,48,31.4,40.46,23.57c-1.34-1.39-3.46.73-2.12,2.12Z"/><path d="M81.28,15.8a139.31,139.31,0,0,1,7,35.58c.12,1.92,3.12,1.94,3,0A142.47,142.47,0,0,0,84.17,15c-.6-1.82-3.5-1-2.89.8Z"/><path d="M83.54,17.77a239.77,239.77,0,0,0,22.92,40.07,1.52,1.52,0,0,0,2.8-.76,182.53,182.53,0,0,0-2.17-44.84c-.33-1.9-3.22-1.09-2.89.8a179.47,179.47,0,0,1,2.06,44l2.79-.76A239.28,239.28,0,0,1,86.13,16.26c-.79-1.76-3.38-.24-2.59,1.51Z"/><path d="M119.17,5.36a210.33,210.33,0,0,0-2,49.5c.14,1.91,3.15,1.93,3,0a206.23,206.23,0,0,1,1.93-48.7c.3-1.89-2.59-2.7-2.9-.8Z"/><path d="M138.94,10.56a96.7,96.7,0,0,0-14.66,11.79c-2.32,2.28-7.23,5.89-5.18,9.67,1.74,3.21,7.19,5.62,10.17,7.31,5.11,2.9,10.27,5.68,13,11.13.87,1.72,3.46.2,2.59-1.52-3.44-6.78-10.21-9.85-16.46-13.54-1.59-.94-4.1-2.07-5.23-3.52-1.25-.55-1.39-1.41-.43-2.56A3.17,3.17,0,0,1,123.94,27a21.68,21.68,0,0,1,2.46-2.52,92.74,92.74,0,0,1,14-11.32c1.6-1.06.1-3.66-1.51-2.59Z"/><path d="M144.57,2.79A52.67,52.67,0,0,0,166.05,9.1c1.93.14,1.92-2.86,0-3a48.89,48.89,0,0,1-20-5.9c-1.69-.93-3.21,1.66-1.51,2.59Z"/><path d="M155.36,8.33l-3.82,40.48c-.18,1.92,2.82,1.91,3,0l3.82-40.48c.18-1.92-2.82-1.91-3,0Z"/><path d="M147.47,53.07a61.7,61.7,0,0,0,22.91,4.25,1.5,1.5,0,0,0,0-3,59.72,59.72,0,0,1-22.11-4.14c-1.8-.7-2.58,2.2-.8,2.89Z"/><path d="M179.05,4.41A156.45,156.45,0,0,0,175.88,48c.13,1.92,3.13,1.93,3,0A153.36,153.36,0,0,1,182,5.21c.4-1.89-2.49-2.69-2.9-.8Z"/><path d="M179.13,15.72a116.7,116.7,0,0,0,9,30.48c.78,1.76,3.37.23,2.59-1.52A113.47,113.47,0,0,1,182,14.93c-.29-1.91-3.18-1.1-2.9.79Z"/><path d="M191.69,46.6c3.59-2.58,2.66-8.15,2.87-12l1.2-22.8c.1-1.93-2.9-1.92-3,0l-.84,15.86-.41,7.93c-.11,1.92.46,7.17-1.33,8.46-1.56,1.11-.06,3.72,1.51,2.59Z"/><path d="M206.05,14l-5,31.92c-.3,1.89,2.59,2.7,2.89.8l5-31.92c.3-1.89-2.59-2.7-2.89-.8Z"/><path d="M209.72,17.42c8.25-6.56,14.95,13.33,14.59,18.39-.66,9-9.72,14.06-17.95,11.72a1.5,1.5,0,0,0-.79,2.89c11.44,3.26,23.06-5.53,21.64-17.76-.93-8-9.48-25.41-19.62-17.36-1.51,1.2.63,3.31,2.13,2.12Z"/><path d="M14.08,78.39A202.19,202.19,0,0,0,46.63,95.14c5.36,2.18,7.7-6.52,2.4-8.68a187.16,187.16,0,0,1-30.4-15.85c-4.9-3.12-9.42,4.66-4.55,7.78Z"/><path d="M13.65,109.33a146.91,146.91,0,0,0,41.51-3.1L51.69,98A77.85,77.85,0,0,0,24,138.5c-1.6,5.58,7.08,8,8.68,2.4a67.69,67.69,0,0,1,23.57-35.12c3.9-3,1.83-9.38-3.47-8.23a138.06,138.06,0,0,1-39.11,2.78c-5.78-.39-5.75,8.61,0,9Z"/><path d="M39.24,119a217.55,217.55,0,0,1,15.38,20c3.24,4.76,11,.27,7.77-4.54a238.13,238.13,0,0,0-16.78-21.83c-3.8-4.39-10.14,2-6.37,6.37Z"/><path d="M37.29,136.66v17.16c0,5.8,9,5.81,9,0V136.66c0-5.79-9-5.8-9,0Z"/><path d="M4.32,171.81l89.86-6.88c5.74-.44,5.79-9.44,0-9L4.32,162.81c-5.74.44-5.78,9.44,0,9Z"/><path d="M99.59,89.45l31.61,4.49c5.67.8,8.12-7.87,2.4-8.68L102,80.77c-5.66-.8-8.11,7.87-2.39,8.68Z"/><path d="M100.33,85.17c-.66,17.42-.5,35.32,2,52.59.85,5.75,4.58,11.11,11.13,9.12,3.6-1.1,6.85-3.94,9.94-6l11.1-7.29c4.82-3.16.32-11-4.54-7.77-5.29,3.47-10.55,7-15.86,10.41-.89.57-2.34,1.84-2.81,1.4s-.44-4.08-.46-4.34c-.35-3.19-.63-6.4-.87-9.6a339.82,339.82,0,0,1-.67-38.56c.21-5.79-8.79-5.78-9,0Z"/><path d="M145.26,85a124.87,124.87,0,0,1,10.79,50.32c0,5.79,9,5.8,9,0a135.9,135.9,0,0,0-12-54.86c-2.37-5.28-10.12-.71-7.78,4.54Z"/><path d="M161.52,122.89a74.64,74.64,0,0,0,24.67-6.19c5.29-2.32.72-10.07-4.54-7.77a61.72,61.72,0,0,1-20.13,5c-5.74.43-5.78,9.43,0,9Z"/><path d="M177.17,80q3.11,34.93,7.19,69.77c.66,5.69,9.67,5.75,9,0q-4.1-34.83-7.19-69.77c-.51-5.73-9.52-5.78-9,0Z"/><path d="M209.1,78.19l22.64-3-4.34-5.69a158.2,158.2,0,0,1-19.61,55.69c-2.92,5,4.86,9.55,7.77,4.54a165.13,165.13,0,0,0,20.52-57.84c.38-2.49-1.12-6.13-4.34-5.7l-22.64,3c-5.65.76-5.73,9.77,0,9Z"/><path d="M218.38,105.42a74.22,74.22,0,0,1,27.39,19.63c3.86,4.34,10.21-2,6.37-6.36a83.91,83.91,0,0,0-31.37-22c-5.36-2.19-7.69,6.52-2.39,8.68Z"/><path d="M261.92,72.19a560.78,560.78,0,0,1,21.62,68.08c1.4,5.61,10.08,3.23,8.68-2.4A561.9,561.9,0,0,0,270.6,69.79c-2.08-5.34-10.78-3-8.68,2.4Z"/><path d="M285.44,114.47l21.16-7.83c5.39-2,3.06-10.69-2.39-8.68l-21.16,7.83c-5.38,2-3.06,10.69,2.39,8.68Z"/><path d="M248.26,137.51c-8.4,2.63-11.14,12.81-6.5,20,5.23,8.06,18.09,10.94,26.81,7.92a16.91,16.91,0,0,0,10-22c-3.68-9.17-14.35-12-22.9-8.36-5.31,2.25-.73,10,4.55,7.77,9.89-4.19,14.91,11.71,4.44,14.33a17.69,17.69,0,0,1-12.84-2.22c-2.52-1.63-5.72-7.34-1.21-8.75,5.51-1.73,3.15-10.42-2.39-8.68Z"/></g></g></svg>